<svg xmlns="http://www.w3.org/2000/svg" xmlns:xlink="http://www.w3.org/1999/xlink" width="500" zoomAndPan="magnify" viewBox="0 0 375 374.999991" height="500" preserveAspectRatio="xMidYMid meet" version="1.0"><defs><g/><clipPath id="6e11135f70"><path d="M 127 72.785156 L 337.492188 72.785156 L 337.492188 127 L 127 127 Z M 127 72.785156 " clip-rule="nonzero"/></clipPath><clipPath id="145c60bcec"><path d="M 264 112 L 318 112 L 318 142.535156 L 264 142.535156 Z M 264 112 " clip-rule="nonzero"/></clipPath><clipPath id="1510ed5190"><path d="M 109.035156 112 L 162 112 L 162 142.535156 L 109.035156 142.535156 Z M 109.035156 112 " clip-rule="nonzero"/></clipPath><clipPath id="fc50d00ddf"><path d="M 6.871094 253.152344 L 368.371094 253.152344 L 368.371094 257 L 6.871094 257 Z M 6.871094 253.152344 " clip-rule="nonzero"/></clipPath><clipPath id="6393bf112a"><path d="M 27 260 L 348 260 L 348 263.652344 L 27 263.652344 Z M 27 260 " clip-rule="nonzero"/></clipPath></defs><g fill="#bb0102" fill-opacity="1"><g transform="translate(10.488285, 246.577952)"><g><path d="M 30.140625 0 L 2.34375 0 L 24.3125 -103.921875 L 85.578125 -103.921875 L 80.828125 -81.390625 L 47.34375 -81.390625 L 43.21875 -61.5625 L 74.203125 -61.5625 L 69.3125 -38.875 L 38.171875 -38.875 Z M 30.140625 0 "/></g></g></g><g fill="#bb0102" fill-opacity="1"><g transform="translate(93.302283, 246.577952)"><g><path d="M 2.203125 0 L 24.171875 -103.921875 L 52.390625 -103.921875 L 30.421875 0 Z M 2.203125 0 "/></g></g></g><g fill="#000000" fill-opacity="1"><g transform="translate(157.464939, 246.577952)"><g><path d="M 87.78125 0 L 57.078125 0 L 46.703125 -35.40625 L 22.671875 0 L -8.890625 0 L 31.140625 -55.15625 L 15.28125 -103.921875 L 44.859375 -103.921875 L 53.59375 -70.578125 L 75.5625 -103.921875 L 107.40625 -103.921875 L 69.15625 -52.390625 Z M 87.78125 0 "/></g></g></g><g fill="#000000" fill-opacity="1"><g transform="translate(253.998331, 246.577952)"><g><path d="M 2.203125 0 L 24.171875 -103.921875 L 52.390625 -103.921875 L 30.421875 0 Z M 2.203125 0 "/></g></g></g><g clip-path="url(#6e11135f70)"><path fill="#000000" d="M 131.175781 90.304688 C 130.332031 90.554688 129.492188 90.804688 128.648438 91.054688 L 127.710938 88.273438 C 137.710938 84.429688 146.148438 81.527344 154.269531 79.140625 C 158.828125 77.816406 163.4375 76.65625 167.972656 75.695312 C 169.066406 75.449219 170.171875 75.242188 171.242188 75.042969 L 171.464844 75 C 171.671875 74.964844 171.871094 74.925781 172.074219 74.886719 C 172.453125 74.816406 172.832031 74.746094 173.214844 74.679688 L 173.234375 74.675781 L 176.707031 74.121094 C 177.105469 74.058594 177.496094 74.007812 177.878906 73.960938 C 178.078125 73.933594 178.28125 73.910156 178.480469 73.882812 L 178.5 73.878906 C 178.84375 73.835938 179.191406 73.789062 179.539062 73.746094 C 180.351562 73.636719 181.191406 73.523438 182.039062 73.449219 L 184.125 73.238281 C 184.601562 73.191406 185.097656 73.140625 185.601562 73.113281 C 186.003906 73.085938 186.40625 73.058594 186.808594 73.03125 C 187.566406 72.976562 188.351562 72.921875 189.128906 72.878906 L 189.171875 72.878906 L 192.738281 72.785156 L 192.765625 72.785156 C 193.550781 72.789062 194.34375 72.804688 195.113281 72.820312 C 195.515625 72.824219 195.917969 72.832031 196.324219 72.839844 L 196.347656 72.839844 C 201.164062 73.015625 205.9375 73.574219 210.664062 74.519531 C 215.371094 75.46875 219.988281 76.738281 224.519531 78.328125 C 229.011719 79.914062 233.414062 81.730469 237.71875 83.777344 C 237.953125 83.886719 238.179688 83.996094 238.40625 84.105469 C 239.234375 84.5 240.09375 84.90625 240.933594 85.339844 C 241.269531 85.511719 241.609375 85.679688 241.953125 85.851562 C 242.65625 86.203125 243.382812 86.566406 244.097656 86.949219 C 244.453125 87.140625 244.816406 87.332031 245.183594 87.523438 C 245.847656 87.871094 246.535156 88.230469 247.210938 88.597656 L 250.28125 90.28125 C 252.089844 91.273438 254.191406 92.410156 256.296875 93.367188 C 257.269531 93.816406 258.28125 94.238281 259.308594 94.617188 C 260.304688 94.984375 261.3125 95.304688 262.339844 95.570312 L 263.109375 95.761719 L 263.933594 95.9375 C 264.253906 96.011719 264.589844 96.070312 264.945312 96.132812 C 265.140625 96.167969 265.332031 96.203125 265.527344 96.238281 C 266.800781 96.445312 267.84375 96.59375 268.808594 96.703125 C 270.917969 96.949219 273.105469 97.125 275.222656 97.296875 L 275.660156 97.332031 C 278.058594 97.527344 280.402344 97.730469 282.753906 98.050781 L 282.78125 98.054688 L 289.695312 99.113281 C 291.910156 99.449219 294.269531 99.8125 296.636719 100.21875 C 299.449219 100.699219 301.601562 101.113281 303.609375 101.5625 C 306.144531 102.121094 308.410156 102.699219 310.535156 103.324219 C 312.847656 103.992188 315.125 104.78125 317.355469 105.6875 C 319.617188 106.605469 321.800781 107.691406 323.898438 108.941406 C 326.039062 110.203125 328.015625 111.691406 329.828125 113.398438 C 331.660156 115.132812 333.210938 117.09375 334.472656 119.28125 C 335.71875 121.46875 336.601562 123.800781 337.125 126.265625 L 334.292969 126.992188 C 333.679688 124.886719 332.773438 122.917969 331.570312 121.085938 C 330.367188 119.269531 328.9375 117.660156 327.269531 116.261719 C 324.207031 113.671875 320.433594 111.601562 315.738281 109.929688 C 311.933594 108.554688 307.765625 107.480469 302.613281 106.542969 C 300.464844 106.160156 298.242188 105.800781 295.820312 105.457031 C 293.492188 105.121094 291.148438 104.828125 288.949219 104.554688 L 282.050781 103.691406 C 279.648438 103.429688 277.261719 103.269531 275.246094 103.144531 L 274.285156 103.085938 C 272.292969 102.960938 270.230469 102.835938 268.167969 102.617188 C 267.105469 102.515625 265.957031 102.367188 264.566406 102.160156 L 264.527344 102.152344 C 264.332031 102.121094 264.136719 102.085938 263.945312 102.054688 C 263.546875 101.992188 263.136719 101.921875 262.71875 101.835938 L 261.792969 101.652344 L 260.898438 101.441406 C 258.453125 100.832031 256.085938 100 253.792969 98.949219 C 251.5 97.925781 249.265625 96.742188 247.355469 95.714844 L 244.285156 94.054688 C 243.640625 93.707031 242.976562 93.359375 242.332031 93.023438 C 241.964844 92.832031 241.597656 92.640625 241.230469 92.449219 C 240.558594 92.089844 239.863281 91.742188 239.191406 91.410156 C 238.847656 91.238281 238.503906 91.070312 238.160156 90.894531 C 237.371094 90.492188 236.550781 90.105469 235.761719 89.730469 C 235.53125 89.625 235.304688 89.515625 235.078125 89.40625 C 230.96875 87.445312 226.769531 85.695312 222.484375 84.164062 C 218.226562 82.636719 213.882812 81.398438 209.460938 80.453125 C 205.054688 79.515625 200.601562 78.921875 196.105469 78.671875 C 195.691406 78.65625 195.277344 78.640625 194.867188 78.625 C 194.164062 78.597656 193.4375 78.570312 192.726562 78.550781 L 189.332031 78.570312 C 188.613281 78.589844 187.875 78.621094 187.160156 78.652344 C 186.746094 78.667969 186.332031 78.6875 185.914062 78.703125 L 185.898438 78.703125 C 185.472656 78.714844 185.042969 78.746094 184.585938 78.78125 L 182.5 78.929688 C 181.734375 78.976562 180.972656 79.054688 180.171875 79.140625 C 179.820312 79.179688 179.472656 79.214844 179.125 79.25 C 178.917969 79.273438 178.714844 79.292969 178.507812 79.3125 C 178.136719 79.347656 177.789062 79.382812 177.441406 79.429688 L 174.023438 79.878906 C 173.664062 79.933594 173.304688 79.988281 172.949219 80.046875 C 172.746094 80.078125 172.539062 80.113281 172.335938 80.144531 C 171.957031 80.207031 171.566406 80.265625 171.175781 80.324219 C 170.445312 80.4375 169.6875 80.554688 168.960938 80.691406 L 168.9375 80.695312 C 164.636719 81.433594 160.097656 82.390625 155.445312 83.539062 C 147.300781 85.503906 139.101562 87.945312 131.175781 90.304688 Z M 131.175781 90.304688 " fill-opacity="1" fill-rule="nonzero"/></g><g clip-path="url(#145c60bcec)"><path fill="#000000" d="M 272.65625 120.230469 C 274.925781 118.089844 277.488281 116.394531 280.339844 115.140625 C 281.761719 114.519531 283.222656 114.015625 284.722656 113.636719 C 286.230469 113.261719 287.761719 113.011719 289.308594 112.882812 L 289.347656 112.882812 C 289.46875 112.875 289.589844 112.867188 289.707031 112.859375 C 289.957031 112.84375 290.214844 112.824219 290.480469 112.816406 L 290.5 112.816406 L 291.644531 112.796875 L 292.277344 112.824219 C 292.8125 112.847656 293.363281 112.867188 293.910156 112.898438 L 294.011719 112.910156 C 294.234375 112.9375 294.453125 112.96875 294.671875 112.996094 C 295.179688 113.058594 295.699219 113.125 296.21875 113.203125 L 296.308594 113.21875 C 296.523438 113.265625 296.738281 113.308594 296.949219 113.351562 C 297.460938 113.457031 297.988281 113.5625 298.519531 113.703125 C 301.535156 114.492188 304.328125 115.765625 306.90625 117.523438 C 309.453125 119.25 311.640625 121.359375 313.460938 123.847656 C 315.273438 126.296875 316.582031 128.992188 317.382812 131.933594 L 314.699219 133.042969 C 313.417969 130.75 311.859375 128.667969 310.023438 126.789062 C 309.777344 126.542969 309.527344 126.296875 309.273438 126.058594 C 311.070312 128.214844 312.425781 130.617188 313.351562 133.265625 C 314.398438 136.277344 314.765625 139.367188 314.457031 142.539062 C 314.15625 139.488281 313.339844 136.585938 312.003906 133.828125 C 310.699219 131.144531 308.957031 128.785156 306.773438 126.753906 C 304.628906 124.753906 302.191406 123.214844 299.46875 122.136719 C 296.765625 121.070312 293.957031 120.535156 291.050781 120.539062 C 288.144531 120.539062 285.339844 121.074219 282.636719 122.140625 C 279.914062 123.21875 277.476562 124.757812 275.332031 126.757812 C 273.152344 128.789062 271.410156 131.144531 270.101562 133.828125 C 268.769531 136.585938 267.949219 139.488281 267.648438 142.539062 C 267.375 139.804688 267.617188 137.117188 268.375 134.476562 C 268.023438 135.234375 267.695312 136.007812 267.402344 136.796875 L 264.578125 136.132812 C 264.902344 133.097656 265.765625 130.226562 267.167969 127.519531 C 268.578125 124.769531 270.40625 122.339844 272.65625 120.230469 Z M 272.65625 120.230469 " fill-opacity="1" fill-rule="nonzero"/></g><g clip-path="url(#1510ed5190)"><path fill="#000000" d="M 109.113281 136.132812 C 109.4375 133.097656 110.300781 130.226562 111.707031 127.519531 C 113.113281 124.769531 114.945312 122.339844 117.195312 120.230469 C 119.464844 118.089844 122.023438 116.394531 124.875 115.140625 C 126.296875 114.519531 127.757812 114.015625 129.261719 113.636719 C 130.769531 113.261719 132.296875 113.011719 133.84375 112.882812 L 133.882812 112.882812 C 134.003906 112.875 134.125 112.867188 134.246094 112.859375 C 134.492188 112.84375 134.753906 112.824219 135.019531 112.816406 L 135.039062 112.816406 L 136.179688 112.796875 L 136.816406 112.824219 C 137.347656 112.847656 137.898438 112.867188 138.445312 112.898438 L 138.550781 112.910156 C 138.769531 112.9375 138.988281 112.96875 139.210938 112.996094 C 139.714844 113.058594 140.238281 113.125 140.757812 113.203125 L 140.847656 113.21875 C 141.058594 113.265625 141.273438 113.308594 141.488281 113.351562 C 141.996094 113.457031 142.523438 113.5625 143.058594 113.703125 C 146.070312 114.492188 148.863281 115.765625 151.441406 117.523438 C 153.988281 119.25 156.175781 121.359375 157.996094 123.847656 C 159.808594 126.296875 161.117188 128.992188 161.921875 131.9375 L 159.234375 133.042969 C 157.953125 130.75 156.394531 128.667969 154.558594 126.792969 C 154.5 126.730469 154.4375 126.675781 154.378906 126.617188 C 155.957031 128.632812 157.167969 130.847656 158.007812 133.269531 C 159.058594 136.277344 159.425781 139.371094 159.117188 142.542969 C 158.816406 139.492188 158 136.585938 156.664062 133.828125 C 155.359375 131.148438 153.617188 128.789062 151.4375 126.757812 C 149.289062 124.757812 146.851562 123.21875 144.128906 122.140625 C 141.425781 121.070312 138.621094 120.539062 135.710938 120.542969 C 132.808594 120.542969 130 121.078125 127.296875 122.144531 C 124.574219 123.222656 122.140625 124.761719 119.992188 126.761719 C 117.8125 128.792969 116.070312 131.148438 114.765625 133.832031 C 113.429688 136.589844 112.609375 139.492188 112.308594 142.542969 C 112.011719 139.558594 112.324219 136.640625 113.242188 133.785156 C 112.757812 134.765625 112.324219 135.773438 111.941406 136.796875 Z M 109.113281 136.132812 " fill-opacity="1" fill-rule="nonzero"/></g><g clip-path="url(#fc50d00ddf)"><path fill="#000000" d="M 6.933594 255.363281 C 126.914062 253.273438 248.238281 253.257812 368.234375 255.363281 C 248.253906 257.472656 126.929688 257.457031 6.933594 255.363281 Z M 6.933594 255.363281 " fill-opacity="1" fill-rule="nonzero"/></g><g clip-path="url(#6393bf112a)"><path fill="#000000" d="M 27.800781 263.347656 C 119.902344 260.003906 215.234375 260.207031 307.402344 262.050781 C 320.722656 262.488281 334.03125 262.753906 347.335938 263.347656 C 269.292969 264.09375 105.8125 264.09375 27.785156 263.347656 Z M 27.800781 263.347656 " fill-opacity="1" fill-rule="nonzero"/></g><g fill="#1d5197" fill-opacity="1"><g transform="translate(310.924407, 164.545127)"><g><path d="M 14.5625 -11.921875 C 14.5625 -9.960938 13.894531 -8.425781 12.5625 -7.3125 C 11.238281 -6.195312 9.421875 -5.640625 7.109375 -5.640625 L 6.09375 -5.640625 L 4.9375 0 L 0.390625 0 L 3.984375 -17.015625 L 8.328125 -17.015625 C 10.335938 -17.015625 11.878906 -16.570312 12.953125 -15.6875 C 14.023438 -14.8125 14.5625 -13.554688 14.5625 -11.921875 Z M 6.921875 -9.375 L 7.65625 -9.375 C 8.351562 -9.375 8.921875 -9.597656 9.359375 -10.046875 C 9.796875 -10.503906 10.015625 -11.082031 10.015625 -11.78125 C 10.015625 -12.238281 9.875 -12.609375 9.59375 -12.890625 C 9.3125 -13.171875 8.925781 -13.3125 8.4375 -13.3125 L 7.75 -13.3125 Z M 6.921875 -9.375 "/></g></g></g><g fill="#1d5197" fill-opacity="1"><g transform="translate(325.775312, 164.545127)"><g><path d="M 0.390625 0 L 3.984375 -17.015625 L 8.53125 -17.015625 L 5.734375 -3.71875 L 11.28125 -3.71875 L 10.484375 0 Z M 0.390625 0 "/></g></g></g><g fill="#1d5197" fill-opacity="1"><g transform="translate(338.333405, 164.545127)"><g><path d="M 16.875 -17.015625 L 14.5625 -6.171875 C 14.101562 -3.992188 13.226562 -2.378906 11.9375 -1.328125 C 10.65625 -0.285156 8.90625 0.234375 6.6875 0.234375 C 5.65625 0.234375 4.738281 0.0195312 3.9375 -0.40625 C 3.144531 -0.832031 2.53125 -1.429688 2.09375 -2.203125 C 1.664062 -2.972656 1.453125 -3.828125 1.453125 -4.765625 C 1.453125 -5.265625 1.5 -5.769531 1.59375 -6.28125 L 3.90625 -17.015625 L 8.46875 -17.015625 L 6.1875 -6.390625 C 6.082031 -5.859375 6.03125 -5.410156 6.03125 -5.046875 C 6.03125 -4.066406 6.5 -3.578125 7.4375 -3.578125 C 8.164062 -3.578125 8.738281 -3.828125 9.15625 -4.328125 C 9.570312 -4.828125 9.890625 -5.59375 10.109375 -6.625 L 12.328125 -17.015625 Z M 16.875 -17.015625 "/></g></g></g><g fill="#1d5197" fill-opacity="1"><g transform="translate(355.046493, 164.545127)"><g><path d="M 11.375 -5.234375 C 11.375 -3.503906 10.800781 -2.160156 9.65625 -1.203125 C 8.519531 -0.242188 6.929688 0.234375 4.890625 0.234375 C 4.035156 0.234375 3.226562 0.140625 2.46875 -0.046875 C 1.707031 -0.242188 1.050781 -0.523438 0.5 -0.890625 L 0.5 -4.953125 C 1.15625 -4.546875 1.898438 -4.203125 2.734375 -3.921875 C 3.578125 -3.640625 4.34375 -3.5 5.03125 -3.5 C 5.601562 -3.5 6.035156 -3.617188 6.328125 -3.859375 C 6.628906 -4.097656 6.78125 -4.441406 6.78125 -4.890625 C 6.78125 -5.097656 6.734375 -5.289062 6.640625 -5.46875 C 6.546875 -5.65625 6.410156 -5.835938 6.234375 -6.015625 C 6.066406 -6.203125 5.609375 -6.609375 4.859375 -7.234375 C 3.953125 -7.960938 3.289062 -8.707031 2.875 -9.46875 C 2.46875 -10.226562 2.265625 -11.0625 2.265625 -11.96875 C 2.265625 -12.988281 2.519531 -13.898438 3.03125 -14.703125 C 3.539062 -15.515625 4.257812 -16.144531 5.1875 -16.59375 C 6.113281 -17.039062 7.148438 -17.265625 8.296875 -17.265625 C 10.148438 -17.265625 11.820312 -16.847656 13.3125 -16.015625 L 11.734375 -12.5625 C 10.410156 -13.25 9.28125 -13.59375 8.34375 -13.59375 C 7.851562 -13.59375 7.472656 -13.484375 7.203125 -13.265625 C 6.929688 -13.046875 6.796875 -12.726562 6.796875 -12.3125 C 6.796875 -11.925781 6.925781 -11.566406 7.1875 -11.234375 C 7.445312 -10.910156 7.941406 -10.472656 8.671875 -9.921875 C 9.585938 -9.242188 10.265625 -8.53125 10.703125 -7.78125 C 11.148438 -7.039062 11.375 -6.191406 11.375 -5.234375 Z M 11.375 -5.234375 "/></g></g></g></svg>